# This file uses centimeters as units for non-parametric coordinates.

mtllib luzhang1.mtl
g default
v -4.396456 0.011404 -10.713971
v 4.396456 0.011404 -10.713971
v -4.396456 4.154567 -11.038065
v 4.396456 4.154567 -11.038065
v -4.396456 4.154567 -12.035127
v 4.396456 4.154567 -12.035127
v -4.396456 0.011404 -12.359221
v 4.396456 0.011404 -12.359221
v -4.396456 1.443578 -12.308846
v -4.396456 1.443578 -10.764346
v 4.396456 1.443578 -10.764346
v 4.396456 1.443578 -12.308846
vt 0.375000 0.000000
vt 0.625000 0.000000
vt 0.375000 0.250000
vt 0.625000 0.250000
vt 0.375000 0.500000
vt 0.625000 0.500000
vt 0.375000 0.750000
vt 0.625000 0.750000
vt 0.375000 1.000000
vt 0.625000 1.000000
vt 0.875000 0.000000
vt 0.875000 0.250000
vt 0.125000 0.000000
vt 0.125000 0.250000
vt 0.125000 0.069657
vt 0.375000 0.680343
vt 0.375000 0.069657
vt 0.625000 0.069657
vt 0.625000 0.680343
vt 0.875000 0.069657
vn 0.000000 0.077986 0.996955
vn 0.000000 0.077986 0.996955
vn 0.000000 0.100456 0.994942
vn 0.000000 0.100456 0.994942
vn 0.000000 1.000000 0.000000
vn 0.000000 1.000000 0.000000
vn 0.000000 1.000000 0.000000
vn 0.000000 1.000000 0.000000
vn 0.000000 0.100456 -0.994942
vn 0.000000 0.100456 -0.994942
vn 0.000000 0.077986 -0.996955
vn 0.000000 0.077986 -0.996955
vn 0.000000 -1.000000 0.000000
vn 0.000000 -1.000000 0.000000
vn 0.000000 -1.000000 0.000000
vn 0.000000 -1.000000 0.000000
vn 1.000000 0.000000 0.000000
vn 1.000000 0.000000 0.000000
vn 1.000000 0.000000 0.000000
vn 1.000000 0.000000 0.000000
vn -1.000000 0.000000 0.000000
vn -1.000000 0.000000 0.000000
vn -1.000000 0.000000 0.000000
vn -1.000000 0.000000 0.000000
vn -1.000000 -0.000000 0.000000
vn -1.000000 -0.000000 0.000000
vn 0.000000 0.035152 0.999382
vn 0.000000 0.035152 0.999382
vn 1.000000 -0.000000 0.000000
vn 1.000000 -0.000000 0.000000
vn 0.000000 0.035152 -0.999382
vn 0.000000 0.035152 -0.999382
s 1
g luzhang1
usemtl initialShadingGroup
f 10/17/1 11/18/2 4/4/3 3/3/4
s off
f 3/3/5 4/4/6 6/6/7 5/5/8
s 2
f 5/5/9 6/6/10 12/19/11 9/16/12
s off
f 7/7/13 8/8/14 2/10/15 1/9/16
s 3
f 11/18/17 12/20/18 6/12/19 4/4/20
s 4
f 9/15/21 10/17/22 3/3/23 5/14/24
f 7/13/25 1/1/26 10/17/22 9/15/21
s 1
f 1/1/27 2/2/28 11/18/2 10/17/1
s 3
f 2/2/29 8/11/30 12/20/18 11/18/17
s 2
f 9/16/12 12/19/11 8/8/31 7/7/32
